<svg width="24" height="24" viewBox="0 0 24 24" fill="none" xmlns="http://www.w3.org/2000/svg">
<path d="M8.88478 21.0233V17.9656C8.88478 17.1851 9.52217 16.5523 10.3084 16.5523H13.1826C13.5602 16.5523 13.9223 16.7012 14.1893 16.9663C14.4563 17.2313 14.6063 17.5908 14.6063 17.9656V21.0233C14.6039 21.3478 14.7321 21.6599 14.9624 21.8902C15.1927 22.1205 15.5061 22.25 15.8329 22.25H17.7938C18.7096 22.2523 19.5888 21.8928 20.2372 21.2508C20.8856 20.6088 21.25 19.737 21.25 18.8278V10.1169C21.25 9.38246 20.9221 8.68584 20.3546 8.21467L13.684 2.92587C12.5237 1.99856 10.8611 2.0285 9.73539 2.99698L3.21701 8.21467C2.62274 8.67195 2.26755 9.37064 2.25 10.1169V18.8189C2.25 20.7139 3.79738 22.25 5.70617 22.25H7.62229C8.30123 22.25 8.853 21.7062 8.85792 21.0322L8.88478 21.0233Z" fill="currentColor"/>
</svg>
