<svg width="773" height="782" viewBox="0 0 773 782" fill="none" xmlns="http://www.w3.org/2000/svg">
<mask id="mask0_76_204" style="mask-type:luminance" maskUnits="userSpaceOnUse" x="0" y="0" width="773" height="782">
<path d="M773 0.729248H0.625V781.305H773V0.729248Z" fill="white"/>
</mask>
<g mask="url(#mask0_76_204)">
<path d="M659.482 666.388C732.313 593.267 773.142 494.224 773 391.015C772.923 384.645 770.34 378.561 765.808 374.085C761.276 369.605 755.165 367.096 748.795 367.096C742.423 367.096 736.311 369.605 731.779 374.085C727.247 378.561 724.665 384.645 724.587 391.015C724.689 481.462 688.891 568.256 625.058 632.325C594.07 664.144 557.025 689.434 516.104 706.704C475.186 723.97 431.224 732.866 386.813 732.866C342.401 732.866 298.439 723.97 257.521 706.704C216.602 689.434 179.556 664.144 148.568 632.325C84.8206 568.193 49.0395 481.434 49.0395 391.001C49.0395 300.566 84.8206 213.808 148.568 149.674C179.376 118.1 216.144 92.956 256.74 75.7007C297.337 58.4458 340.955 49.4223 385.064 49.1538C394.482 49.4488 403.412 53.4126 409.951 60.1993C416.49 66.9857 420.118 76.0586 420.061 85.4828C420.008 94.9069 416.274 103.937 409.658 110.647C403.041 117.357 394.065 121.216 384.644 121.402C383.771 121.404 382.899 121.452 382.033 121.547C314.925 123.708 251.25 151.733 204.322 199.762C154.763 249.659 126.949 317.136 126.949 387.468C126.949 457.801 154.763 525.276 204.322 575.174C228.533 599.98 257.46 619.691 289.401 633.148C321.342 646.606 355.652 653.538 390.31 653.538C424.968 653.538 459.279 646.606 491.22 633.148C523.158 619.691 552.086 599.98 576.298 575.174C625.934 525.329 653.76 457.819 653.661 387.468C653.763 376.388 651.668 365.393 647.5 355.126C643.328 344.861 637.167 335.521 629.367 327.65C621.567 319.778 612.288 313.529 602.061 309.265C591.834 305.001 580.866 302.805 569.784 302.805C558.703 302.805 547.734 305.001 537.507 309.265C527.281 313.529 518.001 319.778 510.201 327.65C502.401 335.521 496.24 344.861 492.068 355.126C487.9 365.393 485.805 376.388 485.908 387.468C485.908 388.175 485.953 388.839 486.01 389.517C485.953 390.196 485.908 390.874 485.908 391.566C486.066 410.885 480.482 429.816 469.863 445.958C459.247 462.097 444.075 474.718 426.275 482.222C408.474 489.723 388.844 491.768 369.881 488.097C350.916 484.423 333.469 475.202 319.754 461.596C306.039 447.99 296.674 430.618 292.847 411.68C289.02 392.743 290.904 373.095 298.26 355.232C305.615 337.366 318.111 322.089 334.161 311.339C350.211 300.588 369.094 294.849 388.41 294.848C391.614 294.887 394.793 294.289 397.764 293.09C400.735 291.891 403.437 290.114 405.715 287.862C407.994 285.61 409.806 282.928 411.039 279.971C412.275 277.014 412.911 273.842 412.911 270.638C412.911 267.434 412.275 264.261 411.039 261.305C409.806 258.348 407.994 255.666 405.715 253.414C403.437 251.162 400.735 249.385 397.764 248.185C394.793 246.986 391.614 246.388 388.41 246.427C359.743 246.586 331.764 255.234 308.005 271.279C284.247 287.324 265.772 310.048 254.911 336.583C244.051 363.118 241.292 392.277 246.982 420.379C252.673 448.481 266.558 474.265 286.885 494.485C307.212 514.702 333.072 528.445 361.202 533.982C389.328 539.514 418.468 536.593 444.937 525.584C471.406 514.574 494.025 495.973 509.936 472.121C525.846 448.269 534.335 420.237 534.335 391.566C534.335 390.86 534.289 390.196 534.233 389.517C534.289 388.839 534.335 388.161 534.335 387.468C534.24 382.751 535.087 378.063 536.829 373.675C538.567 369.29 541.167 365.294 544.466 361.927C547.769 358.557 551.712 355.879 556.06 354.052C560.409 352.226 565.082 351.284 569.798 351.284C574.514 351.284 579.188 352.226 583.536 354.052C587.885 355.879 591.827 358.557 595.13 361.927C598.429 365.294 601.029 369.29 602.767 373.675C604.509 378.063 605.357 382.751 605.261 387.468C605.325 445.064 582.529 500.329 541.881 541.126C522.173 561.377 498.607 577.47 472.576 588.462C446.544 599.453 418.574 605.113 390.317 605.113C362.064 605.113 334.094 599.453 308.063 588.462C282.031 577.47 258.466 561.377 238.757 541.126C198.163 500.294 175.377 445.05 175.377 387.468C175.377 329.886 198.163 274.644 238.757 233.811C258.481 213.585 282.048 197.506 308.072 186.518C334.097 175.529 362.053 169.853 390.303 169.823C392.475 169.817 394.637 169.518 396.732 168.933C417.341 165.771 436.053 155.112 449.286 138.999C462.519 122.885 469.336 102.453 468.432 81.6218C467.528 60.79 458.961 41.0259 444.383 26.1209C429.804 11.2157 410.237 2.21892 389.434 0.856528C388.565 0.761859 387.689 0.713504 386.813 0.71167C386.325 0.71167 385.841 0.71167 385.354 0.71167C385.114 0.71167 384.881 0.71167 384.647 0.71167C384.414 0.71167 384.174 0.739915 383.941 0.746981C333.616 1.14281 283.868 11.4978 237.564 31.215C191.259 50.932 149.316 79.6214 114.151 115.629C41.4403 188.827 0.63208 287.818 0.63208 391.001C0.63208 494.181 41.4403 593.171 114.151 666.37C149.641 702.743 192.048 731.651 238.875 751.383C285.703 771.119 336.005 781.287 386.82 781.287C437.635 781.287 487.935 771.119 534.766 751.383C581.593 731.651 623.998 702.743 659.489 666.37L659.482 666.388Z" fill="white"/>
</g>
</svg>
