<svg width="1099" height="1099" viewBox="0 0 1099 1099" fill="none" xmlns="http://www.w3.org/2000/svg">
<rect width="1098.1" height="1098.1" rx="430" fill="#3D50B5"/>
<g clip-path="url(#clip0_119_166)">
<path d="M797.106 309V511.623C785.747 489.77 769.47 472.835 748.276 460.803C727.068 448.786 702.696 442.77 675.174 442.77C642.82 442.77 614.628 450.212 590.598 465.066C566.553 479.934 547.968 500.376 534.855 526.377C522.398 551.096 515.856 579.078 515.229 610.297H514.973C511.908 625.165 505.566 637.838 495.959 648.33C486.339 658.822 474.652 666.805 460.883 672.264C447.115 677.738 432.136 680.461 415.973 680.461C401.107 680.461 387.011 677.624 373.685 671.937C360.344 666.263 348.329 657.838 337.626 646.691C326.907 635.543 318.498 621.673 312.384 605.051C306.255 588.444 303.205 568.986 303.205 546.691C303.205 516.527 308.45 491.609 318.94 471.937C329.43 452.264 343.198 437.51 360.245 427.674C377.291 417.838 395.862 412.92 415.973 412.92C440.887 412.92 462.408 418.936 480.552 430.953C498.682 442.984 510.155 459.919 514.973 481.773H560.867C553.868 448.986 537.592 422.656 512.022 402.756C486.453 382.87 454.427 372.92 415.973 372.92C385.814 372.92 358.606 380.247 334.347 394.887C310.089 409.542 290.962 429.641 276.98 455.215C262.984 480.789 256 511.281 256 546.691C256 582.101 262.984 610.853 276.98 636.855C290.962 662.87 310.089 683.084 334.347 697.51C358.606 711.937 385.814 719.15 415.973 719.15C454.427 719.15 486.553 708.986 512.35 688.658C516.583 685.322 520.56 681.815 524.28 678.152C527.13 687.261 530.665 696.014 534.855 704.41C547.968 730.639 566.439 751.295 590.256 766.377C614.086 781.459 642.164 789 674.518 789C695.056 789 713.3 785.821 729.263 779.492C745.212 773.162 758.866 764.738 770.24 754.246C781.599 743.754 790.564 732.835 797.106 721.459L801.04 781.131H843V309H797.106ZM779.404 685.721C769.356 705.622 755.702 721.131 738.427 732.279C721.167 743.426 700.957 749 677.796 749C654.635 749 635.608 743.54 618.12 732.607C600.646 721.687 586.878 706.277 576.83 686.377C566.767 666.491 561.75 642.999 561.75 615.885C561.75 588.772 566.667 565.294 576.488 545.393C586.336 525.507 600.104 510.098 617.806 499.164C635.508 488.244 655.505 482.77 677.796 482.77C700.088 482.77 721.167 488.244 738.427 499.164C755.702 510.098 769.356 525.622 779.404 545.721C789.467 565.835 794.484 589.228 794.484 615.885C794.484 642.542 789.467 665.835 779.404 685.721Z" fill="white"/>
<ellipse cx="679" cy="616" rx="80" ry="95" fill="white"/>
<ellipse cx="418" cy="546" rx="80" ry="95" fill="white"/>
</g>
<defs>
<clipPath id="clip0_119_166">
<rect width="587" height="480" fill="white" transform="translate(256 309)"/>
</clipPath>
</defs>
</svg>
